<?xml version="1.0" standalone="no"?>
<!DOCTYPE svg PUBLIC "-//W3C//DTD SVG 20010904//EN"
 "http://www.w3.org/TR/2001/REC-SVG-20010904/DTD/svg10.dtd">
<svg version="1.0" xmlns="http://www.w3.org/2000/svg"
 width="95.000000pt" height="95.000000pt" viewBox="0 0 95.000000 95.000000"
 preserveAspectRatio="xMidYMid meet">
<metadata>
Created by potrace 1.14, written by Peter Selinger 2001-2017
</metadata>
<g transform="translate(0.000000,95.000000) scale(0.100000,-0.100000)"
fill="#000000" stroke="none">
<path d="M235 790 c-112 -29 -185 -107 -185 -200 0 -46 31 -84 75 -92 25 -5
36 14 15 27 -5 3 -8 37 -7 75 3 65 5 71 40 105 38 37 53 43 54 23 1 -14 3 -24
28 -138 9 -41 18 -86 20 -100 2 -14 13 -68 25 -120 12 -52 23 -104 24 -115 2
-11 7 -37 11 -58 l7 -38 61 3 61 3 12 47 c6 26 9 49 7 52 -3 2 -1 11 3 18 5 7
10 22 11 33 2 11 8 43 13 70 13 61 16 78 25 132 7 43 24 68 26 39 1 -9 2 -19
3 -23 1 -5 6 -28 10 -53 16 -88 16 -85 32 -160 3 -14 8 -38 10 -55 3 -16 9
-46 13 -65 l7 -35 64 0 c71 0 71 -1 85 102 3 26 8 50 10 54 3 4 7 24 10 45 3
22 7 50 10 64 3 14 8 41 11 60 3 19 8 43 10 53 3 10 8 32 10 50 5 38 12 72 14
72 1 0 3 9 4 20 2 11 7 41 11 68 l7 47 -31 0 c-33 0 -38 -9 -46 -85 -2 -22 -4
-40 -5 -40 -2 0 -7 -26 -15 -77 -7 -48 -14 -93 -20 -123 -2 -11 -6 -40 -9 -65
-4 -25 -8 -54 -11 -65 -2 -11 -4 -29 -5 -40 -1 -19 -2 -19 -10 1 -4 12 -11 36
-14 55 -6 39 -33 182 -42 219 -3 14 -7 34 -9 45 -2 11 -6 30 -8 41 -3 12 -8
39 -11 60 -12 73 -12 74 -72 74 -44 0 -54 -3 -55 -17 -3 -33 -6 -58 -19 -132
-7 -40 -14 -88 -16 -105 -3 -33 -11 -77 -20 -115 -3 -13 -7 -46 -10 -75 -8
-70 -20 -79 -28 -20 -3 16 -7 39 -9 50 -6 24 -17 88 -22 120 -2 18 -13 72 -31
154 -2 14 -10 51 -15 83 l-11 57 -37 -1 c-20 -1 -49 -5 -66 -9z"/>
</g>
</svg>
